<svg
  width="39"
  height="23"
  viewBox="0 0 39 23"
  fill="none"
  xmlns="http://www.w3.org/2000/svg"
  aria-hidden="true"
  data-icon="arrow-curved"
>
  <path
    d="M37.8134 17.4091C38.0393 17.2503 38.0937 16.9384 37.9349 16.7125C37.7762 16.4866 37.4643 16.4321 37.2384 16.5909L37.8134 17.4091ZM2.76886 17L3.17533 16.7088L2.76886 17ZM8.5 0L3.15083 2.17249L7.70685 5.71876L8.5 0ZM37.2384 16.5909C35.8768 17.5479 33.4812 18.6324 30.5157 19.5673C27.5601 20.4992 24.0751 21.2711 20.5555 21.6203C17.0329 21.9699 13.4985 21.8939 10.4334 21.1468C7.36931 20.4001 4.81165 18.9931 3.17533 16.7088L2.3624 17.2912C4.18166 19.8308 6.98504 21.3357 10.1966 22.1184C13.4072 22.9009 17.063 22.9718 20.6543 22.6154C24.2488 22.2587 27.8015 21.4716 30.8164 20.5211C33.8216 19.5736 36.3294 18.4521 37.8134 17.4091L37.2384 16.5909ZM3.17533 16.7088C1.84721 14.8548 1.70598 12.8553 2.33381 10.7047C2.96877 8.52972 4.38464 6.22871 6.13861 3.8475L5.33346 3.25443C3.56477 5.65563 2.06024 8.0734 1.37388 10.4245C0.680381 12.8 0.816889 15.1337 2.3624 17.2912L3.17533 16.7088Z"
    fill="black"
  ></path>
</svg>
